<svg xmlns="http://www.w3.org/2000/svg" viewBox="0 0 30 31"><path fill="gray" d="M0 1v30h30V1H0zm24.6 11.3l-9.3 9.1-1.8 1.7c-.2.2-.6.4-.9.4-.3 0-.6-.1-.9-.4L10 21.4l-4.7-4.6c-.2-.2-.3-.5-.3-.8 0-.3.1-.6.4-.9l1.8-1.7c.2-.2.6-.4.9-.4.3 0 .6.1.9.4l3.8 3.7 8.5-8.3c.2-.2.6-.4.9-.4.3 0 .6.1.9.4l1.8 1.7c.2.2.4.5.4.9s-.4.7-.7.9z"/><path fill="#EFEFEF" d="M0 0h30v30H0z"/><path fill="#BE0F34" d="M24.6 11.3l-9.3 9.1-1.8 1.7c-.2.2-.6.4-.9.4-.3 0-.6-.1-.9-.4L10 20.4l-4.7-4.6c-.2-.2-.3-.5-.3-.8s.1-.6.4-.9l1.8-1.7c.2-.2.6-.4.9-.4.3 0 .6.1.9.4l3.8 3.7 8.5-8.3c.2-.2.6-.4.9-.4.3 0 .6.1.9.4l1.8 1.7c.2.2.4.5.4.9s-.4.7-.7.9z"/></svg>